# xmcd
#
# Track frame offsets:
#	150
#	9315
#	27901
#	46945
#	69374
#	96523
#	118485
#	135535
#	156025
#	173119
#	190774
#	210675
#	229459
#	257408
#
# Disc length: 4636 seconds
#
# Revision: 0
# Processed by: cddbd v1.5.1PL2 Copyright (c) Steve Scherf et al.
# Submitted via: audiograbber 1.83.01
#
DISCID=bd121a0e
DTITLE=Ray Robinson - What It Is
DYEAR=2004
DGENRE=R&B
TTITLE0=Ray Robinson - What It Is (Intro)
TTITLE1=Ray Robinson - My Heart
TTITLE2=Ray Robinson - Missed Your Chance
TTITLE3=Ray Robinson - I'm Down
TTITLE4=Ray Robinson - Good Times
TTITLE5=Ray Robinson - Because Of You
TTITLE6=Ray Robinson - Move It
TTITLE7=Ray Robinson - Gotta
TTITLE8=Ray Robinson - Girlfriend
TTITLE9=Ray Robinson - Heaven
TTITLE10=Ray Robinson - Be The One
TTITLE11=Ray Robinson - Summer Star
TTITLE12=Ray Robinson - Pleasure Is Pain
TTITLE13=Ray Robinson - Patiently Waiting
EXTD=Independant Canadian Artist
EXTT0=
EXTT1=
EXTT2=
EXTT3=
EXTT4=
EXTT5=
EXTT6=
EXTT7=
EXTT8=
EXTT9=
EXTT10=
EXTT11=
EXTT12=
EXTT13=
PLAYORDER=
